<svg xmlns="http://www.w3.org/2000/svg" xmlns:xlink="http://www.w3.org/1999/xlink" width="582.39" height="484.052" viewBox="0 0 582.39 484.052"><defs><linearGradient id="a" x1="-2.055" y1="1" x2="-2.055" gradientUnits="objectBoundingBox"><stop offset="0" stop-color="gray" stop-opacity="0.251"/><stop offset="0.54" stop-color="gray" stop-opacity="0.122"/><stop offset="1" stop-color="gray" stop-opacity="0.102"/></linearGradient></defs><path d="M500.276,137.089H446.541v65.138h49.808c.129.672.251,1.344.4,2.011H446.541v52.52l.251-.082q2.127-.748,4.226-1.59l.9-.368q2.151-.882,4.226-1.888c.5-.228.988-.468,1.473-.713a87.57,87.57,0,0,0,21.14-14.612c.181-.158.351-.321.514-.479.859-.83,1.7-1.666,2.519-2.525l.9-.958c.964-1.046,1.894-2.127,2.8-3.22l.4-.479a68.036,68.036,0,0,0,9.106-14.612c.076-.158.14-.321.21-.479.731-1.648,1.391-3.32,1.964-5.021.246-.719.479-1.438.684-2.157.07-.216.134-.427.193-.637,2.981-10.433,3.326-21.274,3.326-32.058v-3.77c0-4.354-.064-8.767-.146-13.121,0-1.134-.053-2.262-.082-3.4q-.105-4.343-.316-8.673c-.035-.807-.07-1.607-.123-2.4,0-.462-.047-.923-.076-1.385C500.51,140.415,500.4,138.755,500.276,137.089Z" transform="translate(81.021 22.162)" fill="#c0cfe8" opacity="0.1"/><path d="M446.545,89.86h29.474a201.535,201.535,0,0,0-15.693-19.194c-4.383-4.781-8.983-9.445-13.8-13.934Z" transform="translate(81.017 -3.123)" fill="#c0cfe8" opacity="0.1"/><path d="M446.541,83.464v68.493h53.566c0-.2-.035-.4-.052-.584-.047-.538-.094-1.075-.146-1.619s-.123-1.262-.193-1.9-.14-1.373-.222-2.051-.152-1.373-.24-2.057-.17-1.368-.263-2.046-.181-1.368-.286-2.046c-.082-.584-.158-1.122-.245-1.689-.123-.795-.251-1.6-.386-2.385a3.367,3.367,0,0,0-.064-.351,146.823,146.823,0,0,0-3.939-17.2,118.321,118.321,0,0,0-6.645-17.458,126.748,126.748,0,0,0-10-17.125Z" transform="translate(81.021 5.283)" fill="#c0cfe8" opacity="0.1"/><path d="M444.358,175.2v65.138H559.135V175.2Zm0,67.149v44.109c13.361-4.272,28.638-2.548,42.49.959,10.725,2.724,21.175,6.429,31.883,9.094a116.946,116.946,0,0,0,14.535,2.747l1.2.129c.584.058,1.169.117,1.753.164l1.753.123h.964a2.081,2.081,0,0,0,.269,0l.947.035h.029c.45,0,.906,0,1.362.035H545.3a9.9,9.9,0,0,0,1.023-.035c.549,0,1.1-.047,1.654-.088l1.023-.064,1.263-.1c.894-.07,1.753-.164,2.659-.269.351-.041.707-.082,1.058-.134l.52-.064c.882-.117,1.753-.257,2.636-.4.649-.1,1.3-.222,1.952-.339v-55.9Zm85.366-139.686v2.011H444.358v68.516H559.135V104.7h-5.757v-2.011h5.757V58.423c-22.326-17.984-48.423-32.069-77.488-38.574a164.818,164.818,0,0,0-37.289-3.887v86.728ZM267.3,102.281l.4.386H431.518v-86.1c-29.165,2.426-57.6,12.221-80.533,28.452-11.017,7.791-20.912,17.025-33.273,23A52.1,52.1,0,0,1,296.9,73.4Zm-1.128-35.325V86.448L282,71c-5.886-2.034-10.526-3.425-15.851-4.021Zm-.526,245.217h.526V354.9q8.96-.666,17.849-1.835a319.371,319.371,0,0,0,77.3-20.024h0q4-1.6,7.937-3.308,2.624-1.14,5.219-2.338,3.893-1.788,7.727-3.676a271.871,271.871,0,0,0,32.654-18.972c.649-.438,1.3-.883,1.946-1.333q1.94-1.344,3.852-2.712c.637-.462,1.274-.923,1.905-1.391l1.3-.994c1.309-.976,2.613-1.958,3.933-2.922h0c1.222-.877,2.455-1.753,3.706-2.572v-50.5H299.9c.094-.3.181-.584.281-.9-.105.3-.2.584-.286.9H266.15v69.837Zm.526-207.484v68.5H431.518V104.7Zm0,70.5v65.15H431.518V175.2ZM233.116,68.961l20.2,19.714V66.869Q243.163,67.5,233.116,68.961ZM92.465,175.2v65.138h160.85V175.2Zm38.878,160.873a298.752,298.752,0,0,0,75.822,17.99h.111q7.358.777,14.758,1.2h.181c10.339.584,20.719.719,31.082.333V242.354H92.465l.584,75M47.912,240.343H79.636V175.2H67.088c-1.3,2.291-2.566,4.594-3.764,6.932q-.964,1.865-1.876,3.77C53.19,203.049,47.941,221.892,47.912,240.343Zm0,2.011a82.342,82.342,0,0,0,9.778,38.218,93.718,93.718,0,0,0,21.923,26.3V242.354Zm20.328-69.159H79.613V156.245a180.8,180.8,0,0,0-11.35,16.949Zm71.263-70.5H249.522l.4-.386-.584-.584h0L218.4,71.545a251.213,251.213,0,0,0-27.16,7.277c-.842.275-1.683.584-2.519.847A246.332,246.332,0,0,0,139.5,102.691ZM92.465,140.9v32.3H253.333V106.566l-2.256-1.835H136.265a220.768,220.768,0,0,0-43.8,36.166Z" transform="translate(-44.408 -15.954)" fill="#c0cfe8" opacity="0.1"/><path d="M446.541,109.739v33.946h53.566c0-.2-.035-.4-.052-.584-.047-.538-.094-1.075-.146-1.619s-.123-1.262-.193-1.9-.14-1.373-.222-2.051-.152-1.373-.24-2.057-.17-1.368-.263-2.046-.181-1.368-.286-2.046c-.082-.584-.158-1.122-.245-1.689-.123-.795-.251-1.6-.386-2.385a3.369,3.369,0,0,0-.064-.351,146.822,146.822,0,0,0-3.939-17.2Z" transform="translate(81.021 13.556)" fill="#c0cfe8" opacity="0.1"/><path d="M500.276,137.089H446.541v65.138h49.808c.129.672.251,1.344.4,2.011H446.541v52.52l.251-.082q2.127-.748,4.226-1.59l.9-.368q2.151-.882,4.226-1.888c.5-.228.988-.468,1.473-.713a87.57,87.57,0,0,0,21.14-14.612c.181-.158.351-.321.514-.479.859-.83,1.7-1.666,2.519-2.525l.9-.958c.964-1.046,1.894-2.127,2.8-3.22l.4-.479a68.036,68.036,0,0,0,9.106-14.612c.076-.158.14-.321.21-.479.731-1.648,1.391-3.32,1.964-5.021.246-.719.479-1.438.684-2.157.07-.216.134-.427.193-.637,2.981-10.433,3.326-21.274,3.326-32.058v-3.77c0-4.354-.064-8.767-.146-13.121,0-1.134-.053-2.262-.082-3.4q-.105-4.343-.316-8.673c-.035-.807-.07-1.607-.123-2.4,0-.462-.047-.923-.076-1.385C500.51,140.415,500.4,138.755,500.276,137.089Z" transform="translate(81.021 22.162)" fill="#c0cfe8" opacity="0.1"/><path d="M360.8,79.712V138.4h40.4V79.712h-5.757V59.84H371.793V79.712Z" transform="translate(113.524 18.843)" fill="#c0cfe8" opacity="0.1"/><rect width="40.404" height="65.132" transform="translate(474.323 159.251)" fill="#c0cfe8" opacity="0.1"/><path d="M446.447,188.167h-40.4v54.162a117.741,117.741,0,0,0,14.53,2.747l1.2.129c.584.064,1.169.117,1.753.164l1.753.123h.181a5.9,5.9,0,0,1,.783.035h.269a8.71,8.71,0,0,1,.953.035h0c.45,0,.906,0,1.362.035h3.752l1.029-.035c.544,0,1.1-.047,1.648-.088l1.017-.064,1.268-.1c.888-.076,1.753-.164,2.653-.269l1.058-.134.52-.064c.883-.123,1.753-.251,2.636-.4.655-.1,1.3-.222,1.952-.339Z" transform="translate(68.281 38.233)" fill="#c0cfe8" opacity="0.1"/><rect width="33.32" height="65.612" transform="translate(221.742 91.623)" fill="#c0cfe8" opacity="0.1"/><path d="M168.672,121.125v65.138H334.04v-28.1H245.955v16.575H201.986V121.125Z" transform="translate(53.07 38.126)" fill="#c0cfe8" opacity="0.1"/><path d="M213.516,258.224h.526v42.73q8.96-.678,17.849-1.835a319.942,319.942,0,0,0,77.318-20.053q10.66-4.278,20.883-9.316a271.868,271.868,0,0,0,32.654-18.977q3.91-2.653,7.7-5.43c1.753-1.292,3.507-2.607,5.26-3.887,1.222-.877,2.455-1.753,3.706-2.577v-50.5H247.8c.094-.3.181-.584.275-.894-.1.3-.2.584-.286.894H214.042v69.814Z" transform="translate(7.7 38.019)" fill="#c0cfe8" opacity="0.1"/><path d="M147.821,87.644h21.707V81.63H159.8V63.774c-.842.275-1.683.584-2.519.847V81.63h-9.462Z" transform="translate(-12.971 -0.907)" fill="#c0cfe8" opacity="0.1"/><path d="M108.032,151.953H234.4V86.336h-5.6v48.51H203.2V106.137H182.048V83.46H160.341v22.677H139.2v28.7H108.032Z" transform="translate(-25.491 5.287)" fill="#c0cfe8" opacity="0.1"/><path d="M116.285,137.089v65.138H242.652V137.089ZM120.7,297.962a298.75,298.75,0,0,0,75.822,17.99h.111q7.358.777,14.758,1.2h.181c10.339.585,20.719.719,31.082.333V204.238H116.285V227.33H81.8l.181,51.555" transform="translate(-33.744 22.162)" fill="#c0cfe8" opacity="0.1"/><path d="M77.4,188.167H47.93a82.413,82.413,0,0,0,9.778,38.218,93.735,93.735,0,0,0,21.923,26.3V211.259H77.4Z" transform="translate(-44.402 38.233)" fill="#c0cfe8" opacity="0.1"/><path d="M47.912,199.666h29.5V145.23H61.448C53.19,162.372,47.941,181.215,47.912,199.666Z" transform="translate(-44.408 24.723)" fill="#c0cfe8" opacity="0.1"/><rect width="17.849" height="20.573" transform="translate(221.742 109.864)" fill="#c0cfe8" opacity="0.1"/><rect width="17.849" height="4.734" transform="translate(221.742 152.506)" fill="#c0cfe8" opacity="0.1"/><rect width="17.849" height="13.823" transform="translate(221.742 159.251)" fill="#c0cfe8" opacity="0.1"/><rect width="17.849" height="20.573" transform="translate(221.742 195.143)" fill="#c0cfe8" opacity="0.1"/><rect width="17.849" height="20.573" transform="translate(221.742 237.785)" fill="#c0cfe8" opacity="0.1"/><path d="M214.042,245.052h0v4.775h17.849V229.254H214.042Z" transform="translate(7.7 51.161)" fill="#c0cfe8" opacity="0.1"/><path d="M213.916,261.691v15.891q8.96-.678,17.849-1.835V261.72Z" transform="translate(7.826 61.367)" fill="#c0cfe8" opacity="0.1"/><rect width="76.494" height="1.508" transform="translate(310.616 222.875)" fill="#c0cfe8" opacity="0.1"/><rect width="76.494" height="5.792" transform="translate(310.616 226.4)" fill="#c0cfe8" opacity="0.1"/><rect width="76.494" height="9.316" transform="translate(310.616 251.175)" fill="#c0cfe8" opacity="0.1"/><path d="M281.519,228.539v9.316h59.837q3.9-2.648,7.7-5.436c1.753-1.286,3.507-2.6,5.26-3.875Z" transform="translate(29.097 50.936)" fill="#c0cfe8" opacity="0.1"/><path d="M281.519,250.06v9.316h6.295q10.655-4.267,20.877-9.316Z" transform="translate(29.097 57.708)" fill="#c0cfe8" opacity="0.1"/><rect width="15.056" height="13.39" transform="translate(177.826 178.959) rotate(180)" fill="#c0cfe8" opacity="0.1"/><rect width="15.056" height="13.39" transform="translate(503.874 116.562) rotate(180)" fill="#c0cfe8" opacity="0.1"/><rect width="15.056" height="13.39" transform="translate(503.874 147.667) rotate(180)" fill="#c0cfe8" opacity="0.1"/><rect width="15.056" height="13.39" transform="translate(503.874 178.766) rotate(180)" fill="#c0cfe8" opacity="0.1"/><rect width="15.056" height="13.39" transform="translate(503.874 209.871) rotate(180)" fill="#c0cfe8" opacity="0.1"/><rect width="15.056" height="13.39" transform="translate(503.874 240.982) rotate(180)" fill="#c0cfe8" opacity="0.1"/><rect width="15.056" height="13.39" transform="translate(503.874 272.081) rotate(180)" fill="#c0cfe8" opacity="0.1"/><rect width="15.056" height="13.39" transform="translate(120.338 178.959) rotate(180)" fill="#c0cfe8" opacity="0.1"/><rect width="15.056" height="13.39" transform="translate(177.826 211.981) rotate(180)" fill="#c0cfe8" opacity="0.1"/><rect width="15.056" height="13.39" transform="translate(120.338 211.981) rotate(180)" fill="#c0cfe8" opacity="0.1"/><rect width="15.056" height="13.39" transform="translate(177.826 245.009) rotate(180)" fill="#c0cfe8" opacity="0.1"/><rect width="15.056" height="13.39" transform="translate(120.338 245.009) rotate(180)" fill="#c0cfe8" opacity="0.1"/><rect width="15.056" height="13.39" transform="translate(177.826 278.037) rotate(180)" fill="#c0cfe8" opacity="0.1"/><rect width="15.056" height="13.39" transform="translate(120.338 278.037) rotate(180)" fill="#c0cfe8" opacity="0.1"/><rect width="15.056" height="13.39" transform="translate(177.826 311.071) rotate(180)" fill="#c0cfe8" opacity="0.1"/><rect width="15.056" height="13.39" transform="translate(120.338 311.071) rotate(180)" fill="#c0cfe8" opacity="0.1"/><path d="M138.864,260.178v-8.633h-15.05v7.405Z" transform="translate(38.956 79.163)" fill="#c0cfe8" opacity="0.1"/><path d="M446.541,122.818v7.662h51.532v-7.662Zm46.4.485h4.2V130h-4.226Zm-5.132,0h4.226V130h-4.243Zm-5.12,0h4.226V130H482.69Zm-5.132,0h4.226V130h-4.226Zm-5.126,0h4.255V130h-4.226Zm-5.132,0h4.226V130H467.3Zm-5.132,0h4.226V130h-4.226Zm-5.126,0h4.226V130h-4.226Zm-5.126,0h4.226V130h-4.226Zm-5.126,0h4.226V130h-4.226Z" transform="translate(81.021 17.671)" fill="#c0cfe8" opacity="0.1"/><path d="M446.541,139.783v7.662h51.532v-7.662Zm46.4.485h4.2v6.692h-4.226Zm-5.132,0h4.226v6.692h-4.243Zm-5.12,0h4.226v6.692H482.69Zm-5.132,0h4.226v6.692h-4.226Zm-5.126,0h4.255v6.692h-4.226Zm-5.132,0h4.226v6.692H467.3Zm-5.132,0h4.226v6.692h-4.226Zm-5.126,0h4.226v6.692h-4.226Zm-5.126,0h4.226v6.692h-4.226Zm-5.126,0h4.226v6.692h-4.226Z" transform="translate(81.021 23.009)" fill="#c0cfe8" opacity="0.1"/><path d="M446.541,156.744V164.4h51.532v-7.656Zm46.4.479h4.2v6.7h-4.226Zm-5.132,0h4.226v6.7h-4.243Zm-5.12,0h4.226v6.7H482.69Zm-5.132,0h4.226v6.7h-4.226Zm-5.126,0h4.255v6.7h-4.226Zm-5.132,0h4.226v6.7H467.3Zm-5.132,0h4.226v6.7h-4.226Zm-5.126,0h4.226v6.7h-4.226Zm-5.126,0h4.226v6.7h-4.226Zm-5.126,0h4.226v6.7h-4.226Z" transform="translate(81.021 28.346)" fill="#c0cfe8" opacity="0.1"/><path d="M446.541,173.7v7.656h51.532V173.7Zm46.4.479h4.2v6.7h-4.226Zm-5.132,0h4.226v6.7h-4.243Zm-5.12,0h4.226v6.7H482.69Zm-5.132,0h4.226v6.7h-4.226Zm-5.126,0h4.255v6.7h-4.226Zm-5.132,0h4.226v6.7H467.3Zm-5.132,0h4.226v6.7h-4.226Zm-5.126,0h4.226v6.7h-4.226Zm-5.126,0h4.226v6.7h-4.226Zm-5.126,0h4.226v6.7h-4.226Z" transform="translate(81.021 33.683)" fill="#c0cfe8" opacity="0.1"/><path d="M446.541,190.665v7.674h48.452c.07-.158.14-.321.2-.479h-2.256v-6.71h4.2v1.666c.246-.713.479-1.426.684-2.151Zm41.269.485h4.226v6.692h-4.243Zm-5.12,0h4.226v6.692H482.69Zm-5.132,0h4.226v6.692h-4.226Zm-5.126,0h4.255v6.692h-4.226Zm-5.132,0h4.226v6.692H467.3Zm-5.132,0h4.226v6.692h-4.226Zm-5.126,0h4.226v6.692h-4.226Zm-5.126,0h4.226v6.692h-4.226Zm-5.126,0h4.226v6.692h-4.226Z" transform="translate(81.021 39.019)" fill="#c0cfe8" opacity="0.1"/><path d="M446.541,207.617v7.656h32.21c.187-.158.351-.327.52-.479h-1.712v-6.68h4.226v4.179l.906-.964v-3.215h2.8c.134-.164.263-.327.4-.479Zm25.892.479h4.255v6.7h-4.226Zm-5.132,0h4.226v6.7H467.3Zm-5.132,0h4.226v6.7h-4.226Zm-5.126,0h4.226v6.7h-4.226Zm-5.126,0h4.226v6.7h-4.226Zm-5.126,0h4.226v6.7h-4.226Z" transform="translate(81.021 44.353)" fill="#c0cfe8" opacity="0.1"/><path d="M446.541,224.591v4.635a1.819,1.819,0,0,0,.251-.088v-4.091h4.226v2.49l.9-.368v-2.1h4.226v.234c.5-.228.988-.468,1.473-.707Z" transform="translate(81.021 49.694)" fill="#c0cfe8" opacity="0.1"/><path d="M189.091,152.446h.029ZM221.2,291.437h0Zm34.273-69.843h0c.093-.3.181-.584.281-.9C255.656,221,255.562,221.3,255.474,221.594Zm-66.383-69.148h.029ZM485.3,81.931v2.011h23.653V81.931ZM221.2,291.437h0Zm34.273-69.843h0c.093-.3.181-.584.281-.9C255.656,221,255.562,221.3,255.474,221.594Zm-66.383-69.148h.029ZM221.2,291.437h0Zm34.273-69.843h0c.093-.3.181-.584.281-.9C255.656,221,255.562,221.3,255.474,221.594Z" transform="translate(0.015 4.806)" fill="#c0cfe8" opacity="0.1"/><ellipse cx="20.211" cy="2.238" rx="20.211" ry="2.238" transform="translate(507.527 477.379)" fill="#c0cfe8" opacity="0.1"/><path d="M299.737,247.158l-10.1-.555-.684-29.007-.158-6.908,10.655-1.964.07,8.907Z" transform="translate(90.868 65.689)" fill="#d48a9b"/><path d="M304.165,234.521l-51.9,32.268-1.122,9.819,5.611.281v-7.014L290.7,250.8,249.74,301.576v7.855h6.733l-.561-8.7,47.411-53.864,5.891.561L359.157,304.1l1.122,9.544,6.733.28L365.89,304.1l-39.556-49.375L352.7,272.961l.561,7.855,5.33.28-.561-9.538-50.223-38.721Z" transform="translate(78.579 73.277)" fill="#d48a9b"/><path d="M288.536,226.953a92.59,92.59,0,0,0,12.227-19.924c3.571-7.9,7.487-17.025,7.785-19.726.584-5.05,14.869-15.149,30.579-15.71,10.246-.368,26.207-8.364,36.085-13.887a73.449,73.449,0,0,1,30.275-9.351c11.555-.871,22.42,1.4,16.949,14.8l-73.467,88.967s-62.654,11.041-66.518-6.71a14.764,14.764,0,0,0-.894-2.607C280.827,241.132,280.634,236.754,288.536,226.953Z" transform="translate(29.006 25.654)" fill="#c0cfe8"/><path d="M292.579,227.542a95.311,95.311,0,0,0,12.35-20.106c3.331-7.388,6.867-15.669,7.148-18.177.538-4.822,14.226-14.471,29.258-15.009,9.8-.351,25.073-7.984,34.518-13.261a70.375,70.375,0,0,1,28.978-8.907c11.052-.83,21.45,1.338,16.236,14.144L362.79,251.558s-71.889,10.2-75.694-6.675a16.864,16.864,0,0,0-.894-2.618C285.536,240.593,285.443,236.5,292.579,227.542Z" transform="translate(30.48 26.83)" fill="#dda2a6" opacity="0.2"/><path d="M344.766,233.594c-3.378,0-6.938,0-10.567-.035l-.158-6.908,10.655-1.958Z" transform="translate(45.623 49.726)" opacity="0.1"/><g transform="translate(328.319 318.464)" opacity="0.1"><path d="M334.373,266.442,308,248.207l3.022,3.77,23.349,16.149.561,7.855,5.33.281-.1-1.689-5.231-.275Z" transform="translate(-231.408 -240.351)"/><path d="M255.075,264.3v1.683l31.462-17.68,2.484-3.08Z" transform="translate(-248.062 -241.291)"/><path d="M249.74,289.819V291.5h6.733l-.111-1.683Z" transform="translate(-249.74 -227.258)"/><path d="M256.418,265.129l-5.424-.269-.187,1.672,5.611.281Z" transform="translate(-249.405 -235.111)"/><path d="M358.8,309.006l-1.122-9.544-49.942-56.669-5.891-.561L254.435,296.1l.1,1.572,47.312-53.753,5.891.561,49.942,56.669,1.122,9.544,6.733.28-.193-1.695Z" transform="translate(-248.263 -242.231)"/></g><path d="M337.664,189.416s13.139,9.609,7.388,9.72S337.664,189.416,337.664,189.416Z" transform="translate(46.763 38.626)" opacity="0.1"/><path d="M295.732,253.474s21.742-1.683,29.878-17.394c0,0,16.552-32.829,30.024-36.476s38.434-11.783,48.814-24.407,14.734-22.3,14.734-22.3,2.677,10.216-5.757,22.262-11.5,30.6-17.394,50.264-8.136,27.47-18.8,28.639c-8.036.847-50.527.421-70.843,0C299.747,253.877,295.732,253.474,295.732,253.474Z" transform="translate(33.569 27.135)" fill="#c0cfe8"/><path d="M295.732,253.474s21.742-1.683,29.878-17.394c0,0,16.552-32.829,30.024-36.476s38.434-11.783,48.814-24.407,14.734-22.3,14.734-22.3,2.677,10.216-5.757,22.262-11.5,30.6-17.394,50.264-8.136,27.47-18.8,28.639c-8.036.847-50.527.421-70.843,0C299.747,253.877,295.732,253.474,295.732,253.474Z" transform="translate(33.569 27.135)" fill="#dda2a6" opacity="0.2"/><path d="M299.893,252.71s20.783-1.631,28.557-16.844c0,0,15.827-31.783,28.7-35.313s36.739-11.415,46.663-23.636,14.08-21.6,14.08-21.6,2.542,9.936-5.5,21.6-10.994,29.609-16.628,48.627-7.773,26.622-17.966,27.709c-7.68.818-48.294.4-67.716,0C303.733,253.131,299.893,252.71,299.893,252.71Z" transform="translate(34.879 27.898)" fill="#c0cfe8"/><path d="M287.089,224.956s11.362,4.348,17.814,1.964,22.443-9.4,22.443-9.4S300.415,219.229,287.089,224.956Z" transform="translate(30.85 47.47)" opacity="0.1"/><path d="M405.586,405s-32.66-1.753-40.62-6.429-19.229-4.676-19.287-4.676L215.636,365.547l-54.063-12.858-9.644-1.268,31.853-36.447.97-.421,46.956-20.31s21.041,1.169,25.2,14.88a16.557,16.557,0,0,1,.584,2.957,17.16,17.16,0,0,1-3.32,12c-1.66,2.268-3.7,5.488-4.343,8.323a4.926,4.926,0,0,0,.584,4.208,34.3,34.3,0,0,0,5.775,4.611c11.45,7.6,40.392,20.117,90.954.941,0,0,21.625-21.333,37.99-12.274S405.586,405,405.586,405Z" transform="translate(-11.678 71.61)" fill="#e1dee5"/><path d="M248.451,332.408a4.926,4.926,0,0,0,.584,4.208,34.305,34.305,0,0,0,5.774,4.611l-98.435,7.37,26.979-34.045,46.956-20.31s21.041,1.169,25.2,14.88a16.555,16.555,0,0,1,.584,2.957,17.159,17.159,0,0,1-3.32,12C251.134,326.353,249.094,329.573,248.451,332.408Z" transform="translate(-10.28 71.61)" opacity="0.1"/><path d="M111.446,205.367l80.656,1.753v96.547l-76.564,51.906L97.126,338.625l3.8-56.108-3.8-52.309Z" transform="translate(30.559 64.633)" fill="#a36468"/><path d="M118.364,216.423,212.532,187.4a14.269,14.269,0,0,1,5.231-.584l224.959,16.418a106.267,106.267,0,0,1,53.572,18.9c14.559,10.269,28.978,26.032,35.652,49.9a95.3,95.3,0,0,1-.964,53.671L511.11,390s14.9-139.686-133.842-146.7Z" transform="translate(-22.24 37.797)" fill="#d9d6df"/><path d="M176.868,221.1V376.18s-25.8-3.63-30.392-8.668c-3.764-4.132-25.57-15.78-35.033-27.779a20.018,20.018,0,0,1-4.126-7.873c-3.168-14.424-16.073-48.51-16.073-48.51l3.507-33.314,14.612-21.625,28.346-12.858h21.917Z" transform="translate(-30.773 46.85)" fill="#b8797d"/><path d="M135.57,221.332s-41.941,26.3-32.765,68.622c.748,3.448,1.4,6.914,1.824,10.421,1.677,13.688,11.742,53.022,71.854,71.164v4.091l-25.5-7.113-17.312-9.544L120.456,347.12,104.3,327.412l-7.5-16.073L94.056,290.17,92.472,266l3.863-20.731,9.112-13.489,11.1-8.632Z" transform="translate(-30.387 48.669)" fill="#d9d6df"/><path d="M176.87,221.11v24.67c-18.294,1.987-74.934,13.443-64.875,78.9l-.555,15.032a20.017,20.017,0,0,1-4.126-7.873c-3.168-14.424-16.073-48.51-16.073-48.51l3.507-33.314,14.612-21.625L137.7,215.535h21.917Z" transform="translate(-30.774 46.844)" opacity="0.1"/><path d="M231.245,320.523c-1.66,2.268-3.7,5.488-4.343,8.323-2.548-2.922-3.1-6.283.584-8.942,4.611-3.355,6.149-9.176,6.493-14.343a16.56,16.56,0,0,1,.584,2.957,17.16,17.16,0,0,1-3.32,12Z" transform="translate(11.269 75.171)" fill="#fff" opacity="0.1"/><path d="M437.316,357.666l-11.1,37.7-25.132,24.547-31.561,6.429-49.095-8.767V243.111s8.475-5.552,9.351-5.552,24.547,3.8,24.547,3.8l53.6,38.44,2.221,1.6L434.1,317.046Z" transform="translate(41.338 53.774)" fill="#b8797d"/><path d="M275.179,220.261V402.028l4.734.847V220.261Z" transform="translate(86.583 69.319)" fill="#a36468"/><path d="M408.969,291.907c-35.068-28.814-74.051-33.051-88.546-33.577v-15.2s8.475-5.552,9.351-5.552,24.547,3.8,24.547,3.8l53.6,38.44Z" transform="translate(41.338 53.781)" opacity="0.1"/><path d="M386.778,233.4,167.119,209.44l-24.688-1.309A50.737,50.737,0,0,0,101.4,225.284c-12.858,14.787-22.578,40.871-8.381,85.659,0,0,14.8,58.055,86.5,70.527l208.326,47.207c4.617,1.046,9.176,2.338,13.676,3.8,18.913,6.213,82.994,22.309,113.181-32.408a92.2,92.2,0,0,0,9.457-61.7C516.89,299.862,489.462,234.5,386.778,233.4ZM494.394,397.572c-28.171,45.892-86.22,32.233-103.672,26.844-4.272-1.321-8.6-2.472-12.975-3.407L185.308,379.84c-66.3-10.888-80-61.579-80-61.579-11.192-33.314-6.3-54.811,2.747-68.417A48.674,48.674,0,0,1,151.117,228.5l22.747,1.169,196.473,26.248c3.974.532,7.978.883,11.987,1.017,87.371,2.963,114.555,51.006,121.463,84.116A77.542,77.542,0,0,1,494.394,397.572Z" transform="translate(-32.421 44.488)" fill="#e1dee5"/><path d="M47.716,376.324c7.195,4.816,18.118,2.525,18.118,2.525s16.476-7.8,21.345-7.8,16.71-4.822,16.71-4.822l-.4-3.25-1.2-9.79c7.5,5.845,15.833,3.828,19.936,3.4,4.407-.456,27.955-14.454,30.222-15.377a5.985,5.985,0,0,0,2.063-2.081h0a53.053,53.053,0,0,0,3.986-7.282h0c1.473-1.3,2.548-2.338,2.472-2.566a17.7,17.7,0,0,1,1.444-3.857,18.934,18.934,0,0,0,7.142-2.572,6.236,6.236,0,0,0,2.338-5.05s22.975-23.174,19.954-32.812,7.428-9.872,7.428-9.872,16.008-6.885,18.235-11.011c1.373-2.542,13.384-8.124,22.42-12.04l1.11-.479c3.507,7.686,21.321,1.753,24.828-1.479,3.711-3.442,14.612-5.05,14.612-5.05s.468-45,3.945-50.72c1.654-2.718,2.051-11.6,2.01-20.181v-.912c4.874-.953,16.47-3.156,21.853-3.688,3.413-.339,6.973-2.466,9.7-4.535l.321.4a6.662,6.662,0,0,0,2.963.485,4.535,4.535,0,0,0,2.6-.485c2.092-1.169,9.749-3.442,12.531-4.588s-.462-9.41-2.548-11.017-3.507-3.67-2.338-4.588-2.782-3.215-5.1-3.676-9.281-3.67-9.281-3.67-2.554-5.26-6.727-5.26-9.749-4.132-9.749-4.132c-.228-1.835-4.641-2.063-4.641-2.063s-16.7-12.858-19.492-11.245-10.439-2.525-10.439-2.525-9.392,1.052-11.6-.678h0a2.607,2.607,0,0,0-.584-1.555c-.5-1.555-2.922-3.682-5.26-5.453a20.687,20.687,0,0,0,.269-3.32,12.97,12.97,0,0,0-.053-1.432v-.24l.333-3.232a6.675,6.675,0,0,1,.807-3.039c.392-.584.97-1.081,1.409-1.66a4.134,4.134,0,0,0,.281-.427l.07-.123a3.842,3.842,0,0,0,.175-.345l.053-.117a5.617,5.617,0,0,0,.3-.982v-.076c.029-.152.053-.3.07-.462a.266.266,0,0,1,0-.064,9.79,9.79,0,0,0-.526-3.939c-.7-2.168-1.783-4.261-1.9-6.523a20.186,20.186,0,0,0-.117-3.366c-.585-2.507-3.139-4.091-5.623-5.143-3.431-1.438-5.161-3.01-7.914-5.149-2.338-1.812-6.207-.9-9.153-.713-6.733.433-13.378,2.461-19.714,4.553a19.868,19.868,0,0,0-6.885,3.419A7.6,7.6,0,0,0,198,76.852h0a5.564,5.564,0,0,0-.076,1.169v.1a1.27,1.27,0,0,0,.053.444,1.086,1.086,0,0,0,0,.146,3.445,3.445,0,0,0,.129.526h0c.269.847.766,1.613,1.052,2.455a4.8,4.8,0,0,1,.158.584v.058a5.335,5.335,0,0,1,.094.584h0c.257,2.087-.514,4.267-.853,6.394-.047.3-.082.584-.105.912h0a10.893,10.893,0,0,0,.321,3.665.111.111,0,0,0,0,.041c.035.146.088.292.134.432a1.752,1.752,0,0,0,.058.187c.041.123.094.245.14.362l.1.245c.047.105.1.21.152.316s.088.175.134.257a3.2,3.2,0,0,0,.158.281c.053.093.111.181.169.269s.111.169.175.251.134.181.2.269l.181.222.245.257.193.193.286.245c.07.053.129.111.2.158s.24.169.362.245l.17.117c.187.111.386.21.584.3,1.333.584,3.016.824,3.817,2a2.466,2.466,0,0,1,.392.912v.438a19.039,19.039,0,0,0,.117,2.011,7.437,7.437,0,0,0,.064,1.087,3.115,3.115,0,0,0,.222.789,20.854,20.854,0,0,0,7.014,11.818c.07.357.152.771.24,1.239a23.211,23.211,0,0,1-6.751,3.507c-5.57,1.631-13.443,9.153-13.443,9.153s-3.916,28.224-4.857,31.666-1.636,16.757-1.636,16.757-.929,5.506-2.338,8.258c-.988,1.94-.807,10.281,1.94,15.348a12.8,12.8,0,0,1-1.707,2.782c-5.57,6.429-22.28,6.2-27.85,6.2-5.126,0-6.71,3.109-6.926,3.6-10.2,2.922-43.221,12.32-47.137,14.027-4.641,2.028-7.195,22.069-7.195,22.069s-9.7,33.268-9.235,37.628-3.25,16.505-3.25,16.505,0,13.729-1.572,14.658a.146.146,0,0,1-.047.029c-1.625.69-1.4,7.347-1.4,7.347s1.2.345,3.063.818c-.5,3.361-2.338,8.066-3.758,11.409-.725-.918-1.432-1.3-1.853-.234-1.169,2.922-18.563,23.577-22.975,23.577-2.1,0-5.57,1.718-7.855,4.039C45,370.526,43.941,373.8,47.716,376.324Zm79.808-119.563c19.726,1.835,40.842-1.4,40.842-1.4s-1.625,5.757-3.016,8.054-5.342,15.377-5.342,18.118-6.265,26.389-8.118,27.534a6.911,6.911,0,0,0-2.022,2.922,27.439,27.439,0,0,0-1.227,3.507q.041.894.158,1.7c-1.385,1.268-2.852,2.6-4.156,3.781h0s-8.3,4.617-11.1,7.142-15.78,5.623-15.78,5.623a80.8,80.8,0,0,0-9.351,4.763c-4.027,2.426-8.054,5.512-9.106,8.557.456-5.132,1.2-11.309,1.695-15.237l.736-.029c6.505-.4,5.535-6.61,5.19-8.147-.047-.222-.082-.345-.082-.345,4.641-5.05,15.079-42.666,13.688-46.815s1.169-7.8,1.712-7.8,1.3-4.588.146-7.113S127.524,256.761,127.524,256.761Zm159.5-101.24-1.233.3v-.263S286.241,155.561,287.024,155.52ZM219.6,120.891c-.187.234-.374.456-.584.672l-.24.245v-1.274C219.057,120.645,219.326,120.78,219.6,120.891Zm-23.244,44.524.082,1.292s-.123.789-.357,2.139Zm106.635-12.823-4.05.7c.584-.216,1.14-.45,1.689-.713a3.886,3.886,0,0,1,1.292-.351,7.418,7.418,0,0,1,1.508.321,2.8,2.8,0,0,0-.438.047Z" transform="translate(-45.246 -0.764)" fill="url(#a)"/><path d="M143.274,259.138s-4.676,9.649-4.436,10.333-10.024,8.872-10.024,8.872l-11.157-7.966,1.169-5.47s12.525-11.286,13.443-12.589S143.274,259.138,143.274,259.138Z" transform="translate(-22.462 58.374)" fill="#efb7b9"/><path d="M89.092,289.616c7.744,7.516,16.85,5.26,21.181,4.787s27.435-14.349,29.656-15.26a6.048,6.048,0,0,0,2.028-2.069h0a52.561,52.561,0,0,0,3.91-7.23c-.152.041-7.727,2.209-9.638,0,0,0-3.191-3.91-3.875-3.91s-.053-6.862-.053-6.862-8.147,4.582-10.877,7.09-15.488,5.576-15.488,5.576a78.322,78.322,0,0,0-9.164,4.728C90.74,280.148,84.662,285.344,89.092,289.616Z" transform="translate(-31.928 60.544)" fill="#67647e"/><path d="M89.092,285.453c7.744,7.516,16.85,5.26,21.181,4.787s27.435-14.349,29.656-15.26a6.048,6.048,0,0,0,2.028-2.069c-2.694-1.607-20.3,9.585-25.225,11.637s-17.394.906-24.471-2.051c-3.507-1.479.047-6.02,4.5-10.193C90.74,275.985,84.662,281.181,89.092,285.453Z" transform="translate(-31.928 64.707)" opacity="0.1"/><path d="M94.873,265.08s-3.244,24.366-2.42,27.557S72.1,281.708,72.1,281.708s7.411-15.272,5.26-18.779S94.873,265.08,94.873,265.08Z" transform="translate(-36.798 61.397)" fill="#efb7b9"/><path d="M74.007,292.547s13.209,3.869,20.491,3.413c6.382-.4,5.43-6.558,5.1-8.083-.047-.216-.082-.339-.082-.339,4.553-5.015,14.8-42.362,13.443-46.459s1.11-7.715,1.695-7.715,1.28-4.559.14-7.06,5.015-4.781,5.015-4.781c19.357,1.818,40.082-1.391,40.082-1.391s-1.6,5.716-2.963,8-5.26,15.254-5.26,17.99-6.149,26.19-7.972,27.329a6.775,6.775,0,0,0-1.981,2.922,27.328,27.328,0,0,0-1.2,3.507c.684,15.26,17.99,9.351,20.5,7.288a6.724,6.724,0,0,0,.97-.994,6.371,6.371,0,0,0,1.3-4.021s22.549-23,19.585-32.566,7.288-9.79,7.288-9.79,15.716-6.832,17.9-10.935c1.35-2.519,13.133-8.054,22-11.946,5.558-2.437,9.971-4.22,9.971-4.22l-3.694-13.244L233.413,189l-5.482-2.057L210.4,180.353l-31.456-4.413-2.881.374L145.5,180.272s-44.618,12.765-49.177,14.764-7.06,21.9-7.06,21.9-9.562,33.022-9.094,37.37-3.191,16.365-3.191,16.365,0,13.624-1.549,14.547a.081.081,0,0,1-.047,0C73.779,285.966,74.007,292.547,74.007,292.547Z" transform="translate(-36.2 34.386)" fill="#444053"/><path d="M108.823,214.9c19.357,1.818,40.082-1.391,40.082-1.391,1.368-4.307,20.509-16.149,20.509-16.149C153.71,193.492,108.823,214.9,108.823,214.9Z" transform="translate(-25.242 40.979)" opacity="0.1"/><path d="M124.588,255.771c.684,15.26,17.99,9.351,20.5,7.288a6.724,6.724,0,0,0,.97-.994c-6.049,2.227-16.774,3.951-20.263-9.778a27.329,27.329,0,0,0-1.2,3.483Z" transform="translate(-20.281 58.409)" fill="#444053"/><path d="M74.007,266.389S87.216,270.259,94.5,269.8c6.382-.4,5.43-6.558,5.1-8.083-6.686-.21-18.2-.836-24.179-2.648a.082.082,0,0,1-.047,0C73.779,259.808,74.007,266.389,74.007,266.389Z" transform="translate(-36.2 60.544)" fill="#444053"/><path d="M124.588,255.771c.684,15.26,17.99,9.351,20.5,7.288a6.724,6.724,0,0,0,.97-.994c-6.049,2.227-16.774,3.951-20.263-9.778a27.329,27.329,0,0,0-1.2,3.483Z" transform="translate(-20.281 58.409)" opacity="0.1"/><path d="M74.007,266.389S87.216,270.259,94.5,269.8c6.382-.4,5.43-6.558,5.1-8.083-6.686-.21-18.2-.836-24.179-2.648a.082.082,0,0,1-.047,0C73.779,259.808,74.007,266.389,74.007,266.389Z" transform="translate(-36.2 60.544)" opacity="0.1"/><path d="M49.806,309.541c7.06,4.781,17.768,2.5,17.768,2.5S83.74,304.3,88.526,304.3s16.377-4.787,16.377-4.787l-.392-3.22-1.882-15.453s-17.738-.456-18.451-2.051c0,0-3.185-7.843-4.325-4.945S61.635,297.226,57.3,297.226c-2.063,0-5.471,1.707-7.709,4.009C47.158,303.79,46.112,307.04,49.806,309.541Z" transform="translate(-44.571 64.99)" fill="#67647e"/><path d="M95.828,198.463s14.8,9.351,10.707,11.385S95.828,198.463,95.828,198.463Z" transform="translate(-29.331 41.473)" opacity="0.1"/><path d="M91.138,212.147s12.753,12.11,7.972,12.431S91.138,212.147,91.138,212.147Z" transform="translate(-30.806 45.779)" opacity="0.1"/><path d="M80.757,241.4s6.476,12.174,4.039,14.284S80.757,241.4,80.757,241.4Z" transform="translate(-34.073 54.984)" opacity="0.1"/><path d="M135.019,252.693c-2.279,2.274,21.625-7.516,16.166-7.972S135.019,252.693,135.019,252.693Z" transform="translate(-17.048 56.022)" opacity="0.1"/><path d="M171.357,128.259l.766-.111c2.829-.432,13.1-2.046,22.309-4.044,2.244-.491,4.419-1,6.429-1.525,7.054-1.847,11.789-3.84,8.767-5.476-4-2.168-6.1-6.108-7.212-9.5-.105-.333-.2-.655-.3-.976a25.316,25.316,0,0,1-.918-5.26s-25.716-9.112-20.725,0c2.461,4.471.807,8.118-1.514,10.672a20.034,20.034,0,0,1-5.547,4.132Z" transform="translate(-5.565 9.647)" fill="#efb7b9"/><path d="M205.77,115.483s-9.205,6.6-18.609,1.14-21.7,48.282-21.7,48.282l-12.753,31.427s-8.258,6.832,2.022,9.8,33.086-2.963,38.878,5.693,16.757,10.018,17.879,10.018,5.459-32.572,5.459-32.572l1.128-47.143Z" transform="translate(-12.421 15.363)" opacity="0.1"/><path d="M155.054,204.74c10.281,2.957,33.092-2.963,38.884,5.693a22.244,22.244,0,0,0,9.813,7.908,25.717,25.717,0,0,0,8.083,2.139c.146,0,.362-.584.614-1.631,1.6-6.593,4.845-30.941,4.845-30.941l1.122-47.143L207.6,117.3l-1.479-3.2a19.515,19.515,0,0,1-4.676,2.285,16.465,16.465,0,0,1-13.922-1.169c-2.759-1.6-5.769,1.894-8.638,7.633-6.92,13.817-13.063,40.649-13.063,40.649l-12.765,31.467a10.829,10.829,0,0,0-.865.83C150.378,197.686,146.982,202.414,155.054,204.74Z" transform="translate(-12.313 14.927)" fill="#f3f5f9"/><path d="M191.909,209.375a59.743,59.743,0,0,0-.3,11.993,140.459,140.459,0,0,0,2.139,16.949,6.68,6.68,0,0,0,.281,1.034c5.558-2.437,9.971-4.22,9.971-4.22L200.3,221.888c1.6-6.593,4.845-30.941,4.845-30.941l1.122-47.143L195.451,120.35c7.054-1.847,11.789-3.84,8.767-5.476-4.383-2.379-6.493-6.891-7.51-10.474a38.02,38.02,0,0,1-6.458,6.967l-.14.117-.818,7.949-.251,2.443-.526,5.067s2.507,59.9,4.325,63.315.912,10.018-.678,17.762C192.061,208.457,192,208.907,191.909,209.375Z" transform="translate(-0.167 11.876)" opacity="0.1"/><path d="M192.844,210.543c-1.59,7.744-.228,20.5,1.6,30.287s21.181,3.419,24.828,0,14.343-5.009,14.343-5.009.456-44.635,3.875-50.328c1.619-2.7,2.011-11.514,1.97-20.029-.029-7.645-.409-15.05-.549-17.534-.035-.584-.053-.906-.053-.906s14.8-25.05,14.571-26.885-4.553-2.046-4.553-2.046-16.365-12.753-19.129-11.163-10.252-2.5-10.252-2.5-9.521,1.081-11.491-.76a1,1,0,0,1-.351-.836c.222-2.922-9.7-9.141-10.012-9.351,8.369,7.528-5.161,19.129-6.7,20.4l-.14.117-1.6,15.459s2.507,59.9,4.325,63.315S194.439,202.8,192.844,210.543Z" transform="translate(0.05 8.44)" fill="#67647e"/><circle cx="1.14" cy="1.14" r="1.14" transform="translate(192.636 152.781)" fill="#444053"/><path d="M190.87,114.592l6.92,6.692,10.14-16.949a1,1,0,0,1-.351-.836c.222-2.922-9.708-9.141-10.012-9.351C205.937,101.717,192.43,113.318,190.87,114.592Z" transform="translate(0.574 8.65)" opacity="0.1"/><circle cx="1.14" cy="1.14" r="1.14" transform="translate(194.916 189.216)" opacity="0.1"/><circle cx="1.14" cy="1.14" r="1.14" transform="translate(194.916 188.76)" fill="#444053"/><path d="M190.523,113.9l6.92,6.692,10.14-16.949a1,1,0,0,1-.351-.836c.222-2.922-9.7-9.141-10.012-9.351C205.59,101.023,192.06,112.619,190.523,113.9Z" transform="translate(0.465 8.432)" fill="#67647e"/><rect width="15.851" height="33.49" rx="0.756" transform="translate(199.659 186.444) rotate(-178.69)" fill="#d1d9ec"/><rect width="15.851" height="33.49" rx="0.756" transform="translate(199.74 187.185) rotate(-178.69)" fill="#dfe6f5"/><circle cx="2.49" cy="2.49" r="2.49" transform="translate(190.123 160.841)" fill="#fff"/><path d="M126.491,204.919c5.693,2.507,43.046-4.091,48.51-5.693s13.443-13.893,9.568-22.794S185.93,158.9,185.93,158.9s8.182-17.534,10.024-20.953a157.453,157.453,0,0,0,6.149-15.027,1.368,1.368,0,0,0-.321-1.046c-1.484-2.238-7.212-6.225-7.212-6.225-1.607.584-1.806-4.027-1.753-7.411.035-1.894.146-3.4.146-3.4s-.754.766-1.987,1.812c-.45.38-.964.8-1.537,1.233A23.63,23.63,0,0,1,182.3,111.8c-5.465,1.619-13.209,9.083-13.209,9.083l2.279,34.974s-5.26,32.894-10.707,39.27-21.865,6.148-27.329,6.148S126.491,204.919,126.491,204.919Z" transform="translate(-19.683 12.013)" opacity="0.1"/><path d="M126.144,203.88c5.693,2.5,43.046-4.091,48.51-5.7s13.443-13.893,9.568-22.794,1.362-17.534,1.362-17.534,8.182-17.534,10.024-20.953a157.453,157.453,0,0,0,6.149-15.026,1.374,1.374,0,0,0-.322-1.046c-1.5-2.233-7.195-6.207-7.195-6.207-1.607.584-1.806-4.021-1.753-7.405.035-1.9.146-3.407.146-3.407s-.754.766-1.987,1.818c-.45.374-.964.795-1.537,1.227a23.63,23.63,0,0,1-7.177,3.922c-5.465,1.619-13.209,9.083-13.209,9.083L171,154.832s-5.26,32.894-10.707,39.27-21.859,6.149-27.329,6.149S126.144,203.88,126.144,203.88Z" transform="translate(-19.792 11.69)" fill="#67647e"/><path d="M173.264,104.475s.216,1.2.584,3.045c1.227,6.254,4.15,19.907,6.26,19.381,1.514-.38,4.091-3.057,6.055-5.371-1.479-2.256-7.195-6.242-7.195-6.242-1.607.584-1.806-4.021-1.753-7.405l-1.841-1.59Z" transform="translate(-4.965 11.9)" opacity="0.1"/><path d="M173.611,103.8s.216,1.2.584,3.045c1.227,6.254,4.15,19.907,6.26,19.381,1.514-.38,4.091-3.057,6.055-5.371-1.508-2.25-7.206-6.225-7.206-6.225-1.607.584-1.806-4.021-1.753-7.405l-1.841-1.59Z" transform="translate(-4.856 11.685)" fill="#67647e"/><path d="M164.918,158.1s11.391-2.274,14.576-7.282,24.881-9.351,22.21-4.091-22.21,22.379-22.21,22.379l-8.481,12.139-11.327-2.876-4.775-9.287Z" transform="translate(-10.74 24.441)" fill="#efb7b9"/><path d="M186.087,164.693s-11.029,4.091-12.689,9.562S186.087,164.693,186.087,164.693Z" transform="translate(-4.965 30.847)" opacity="0.1"/><path d="M191.23,169.534s1.005,5.687-12.817,5.26Z" transform="translate(-3.345 32.37)" opacity="0.1"/><path d="M237.414,114.205l5.015-.456s5.465,4.091,9.562,4.091,6.6,5.26,6.6,5.26,6.832,3.191,9.112,3.647,6.148,2.729,5.009,3.641.228,2.963,2.279,4.553,5.26,9.8,2.5,10.935-10.246,3.413-12.274,4.553-4.553,0-4.553,0-12.063-15.716-18.218-12.753-14.582,2.946-14.582,2.946l-6.6-13.887Z" transform="translate(10.138 14.818)" opacity="0.1"/><path d="M154.543,188.435a6.108,6.108,0,0,0,4.249,2.952,32.146,32.146,0,0,0,13.261-1.227s-22.94-7.288-.853-25.009h-5.9l-1.987-.748.9-4.717,1.3-42.543L160.726,116s-3.852,28.013-4.769,31.427-1.607,16.628-1.607,16.628-.912,5.465-2.279,8.182C151.036,174.309,151.322,183.573,154.543,188.435Z" transform="translate(-11.802 15.527)" fill="#67647e"/><path d="M154.53,176.854a6.1,6.1,0,0,0,4.249,2.952,32.146,32.146,0,0,0,13.261-1.227s-22.94-7.288-.853-25.021h-5.9l-1.97-.748C160.03,158.566,154.945,168.789,154.53,176.854Z" transform="translate(-10.86 27.108)" opacity="0.1"/><path d="M153.823,176.851a6.108,6.108,0,0,0,4.249,2.952,32.145,32.145,0,0,0,13.261-1.227s-22.94-7.288-.853-25.009h-5.9l-1.987-.748C159.364,158.564,154.256,168.786,153.823,176.851Z" transform="translate(-11.082 27.111)" fill="none"/><path d="M153.823,176.851a6.108,6.108,0,0,0,4.249,2.952,32.145,32.145,0,0,0,13.261-1.227s-22.94-7.288-.853-25.009h-5.9l-1.987-.748C159.364,158.564,154.256,168.786,153.823,176.851Z" transform="translate(-11.082 27.111)" fill="#67647e"/><path d="M177.137,112.058a20.731,20.731,0,0,0,23.454-4.454c-.105-.333-.2-.655-.3-.976a25.312,25.312,0,0,1-.918-5.26s-25.716-9.112-20.725,0C181.111,105.856,179.457,109.5,177.137,112.058Z" transform="translate(-3.747 9.647)" opacity="0.1"/><path d="M167.894,98.428v.2a18.708,18.708,0,0,0,.117,1.993c.07.655.164,1.251.281,1.864a20.731,20.731,0,0,0,39.93,2.677c.14-.4.263-.807.374-1.216a20.492,20.492,0,0,0,.748-5.523,12.774,12.774,0,0,0-.053-1.42,20.725,20.725,0,0,0-41.4,1.42Z" transform="translate(-6.655 3.493)" fill="#efb7b9"/><path d="M167.894,98.631a8.922,8.922,0,0,1,.117,1.993,7.406,7.406,0,0,0,.058,1.081,3.068,3.068,0,0,0,.222.783c.836,1.964,3.571,3.238,5.377,1.97a5.763,5.763,0,0,0,1.613-2.116c1.917-3.559,4.576-7.651,8.767-7.721,1.788-.035,3.466.719,5.2,1.169s3.776.491,5.061-.684c.994-.906,1.461-2.449,2.788-2.764s2.554.9,3.162,2.092,1.093,2.6,2.338,3.215c.549.269,1.169.351,1.753.643,2.478,1.356,1.338,6.108,3.91,6.879a1.863,1.863,0,0,0,.245.058c.041-.421.088-.853.129-1.274q.351-3.472.7-6.943a20.725,20.725,0,0,0-41.4,1.42Z" transform="translate(-6.655 3.494)" opacity="0.1"/><path d="M206.769,71.43c2.437,1.035,4.974,2.624,5.517,5.108a20.5,20.5,0,0,1,.117,3.337c.117,2.244,1.169,4.325,1.864,6.476s.929,4.676-.438,6.488c-.427.584-.994,1.046-1.379,1.642a6.722,6.722,0,0,0-.795,3.051l-1.128,11.21c-2.887-.544-1.6-5.552-4.161-6.943-.532-.292-1.169-.374-1.724-.649-1.233-.584-1.712-2.016-2.338-3.209s-1.812-2.414-3.162-2.092-1.794,1.864-2.782,2.764c-1.292,1.169-3.343,1.122-5.067.684s-3.407-1.169-5.19-1.169c-4.2.07-6.862,4.161-8.767,7.721a5.78,5.78,0,0,1-1.619,2.122c-2.034,1.426-5.26-.374-5.593-2.759-.2-1.338.222-2.829-.549-3.963s-2.443-1.373-3.746-1.981c-3.331-1.531-4.36-5.687-3.811-9.17.4-2.513,1.4-5.1.584-7.516-.286-.836-.771-1.6-1.034-2.431-.731-2.338.462-4.933,2.338-6.6a19.015,19.015,0,0,1,6.756-3.39c6.213-2.087,12.735-4.091,19.346-4.524,2.893-.187,6.686-1.093,8.983.713C201.719,68.443,203.4,70,206.769,71.43Z" transform="translate(-8.714 -0.444)" fill="#585268"/><circle cx="1.14" cy="1.14" r="1.14" transform="translate(191.496 134.785)" opacity="0.1"/><circle cx="1.14" cy="1.14" r="1.14" transform="translate(191.496 134.329)" fill="#444053"/><circle cx="1.14" cy="1.14" r="1.14" transform="translate(198.785 206.3)" opacity="0.1"/><circle cx="1.14" cy="1.14" r="1.14" transform="translate(198.785 205.844)" fill="#444053"/><circle cx="1.14" cy="1.14" r="1.14" transform="translate(194.916 225.202)" opacity="0.1"/><circle cx="1.14" cy="1.14" r="1.14" transform="translate(194.916 224.746)" fill="#444053"/><path d="M164.871,133.035s-2.507,17.008,0,19.971S164.871,133.035,164.871,133.035Z" transform="translate(-7.957 20.886)" opacity="0.1"/><path d="M222.828,157.06s4.781,10.3,0,20.181-7.744,13.893-6.149,20.2S222.828,157.06,222.828,157.06Z" transform="translate(8.558 28.445)" opacity="0.1"/><path d="M49.806,304.014c7.06,4.781,17.768,2.5,17.768,2.5s16.166-7.738,20.953-7.738,16.377-4.787,16.377-4.787l-.392-3.22c-4.717.906-15.447,3.074-16.686,4.132-1.6,1.368-21.181,7.972-21.181,7.972s-13.337-1.666-17.049-7.148C47.158,298.263,46.112,301.513,49.806,304.014Z" transform="translate(-44.571 70.517)" opacity="0.1"/><g transform="translate(152.642 76.865)" opacity="0.1"><path d="M200.184,75.164v.111A.352.352,0,0,0,200.184,75.164Z" transform="translate(-149.137 -74.422)"/><path d="M165.707,91.834c1.3.584,2.922.818,3.746,1.975s.351,2.624.549,3.963c.345,2.385,3.559,4.191,5.593,2.759a5.78,5.78,0,0,0,1.619-2.122c1.911-3.559,4.576-7.651,8.767-7.721,1.788-.029,3.466.725,5.2,1.169s3.776.491,5.067-.684c.988-.9,1.455-2.449,2.782-2.765s2.548.9,3.162,2.092,1.093,2.6,2.338,3.215c.549.269,1.169.351,1.724.643,2.56,1.4,1.274,6.429,4.161,6.943q.584-5.611,1.128-11.21a6.7,6.7,0,0,1,.795-3.016c.386-.584.953-1.075,1.379-1.648a5.02,5.02,0,0,0,.935-2.408,5.844,5.844,0,0,1-.935,4.231c-.427.584-.994,1.046-1.379,1.642a6.721,6.721,0,0,0-.807,3.045q-.584,5.6-1.128,11.21c-2.887-.544-1.6-5.552-4.161-6.943-.532-.292-1.169-.374-1.724-.649-1.233-.584-1.712-2.016-2.338-3.209s-1.812-2.414-3.162-2.092-1.794,1.864-2.782,2.764c-1.292,1.169-3.343,1.122-5.067.684s-3.407-1.169-5.2-1.169c-4.191.07-6.856,4.161-8.767,7.721a5.78,5.78,0,0,1-1.619,2.122c-2.034,1.426-5.26-.374-5.593-2.759-.2-1.338.222-2.829-.549-3.963S167,94.283,165.7,93.675c-3.045-1.4-4.167-5-3.91-8.264C162.019,88.081,163.223,90.688,165.707,91.834Z" transform="translate(-161.231 -71.717)"/><path d="M161.57,75.309c.263.836.748,1.6,1.034,2.431a7.014,7.014,0,0,1,.257,3,5.843,5.843,0,0,0-.257-1.169c-.286-.836-.772-1.6-1.034-2.431a5.131,5.131,0,0,1-.134-2.379A4.791,4.791,0,0,0,161.57,75.309Z" transform="translate(-161.355 -74.316)"/></g><path d="M270.862,225.022l-46.944-5.874a1.794,1.794,0,0,1-1.07-3.028l19.691-20.456a1.788,1.788,0,0,1,1.5-.538l35.892,4.021a1.794,1.794,0,0,1,1.473,2.431L272.762,223.9a1.8,1.8,0,0,1-1.9,1.122Z" transform="translate(10.478 40.419)" fill="#746d83"/><path d="M270.862,225.022l-46.944-5.874a1.794,1.794,0,0,1-1.07-3.028l19.691-20.456a1.788,1.788,0,0,1,1.5-.538l35.892,4.021a1.794,1.794,0,0,1,1.473,2.431L272.762,223.9a1.8,1.8,0,0,1-1.9,1.122Z" transform="translate(10.478 40.419)" opacity="0.1"/><path d="M270.456,224.63l-46.938-5.9a1.8,1.8,0,0,1-1.07-3.033l19.69-20.456a1.812,1.812,0,0,1,1.5-.544l35.886,4.021A1.8,1.8,0,0,1,281,201.158l-8.644,22.321A1.806,1.806,0,0,1,270.456,224.63Z" transform="translate(10.352 40.286)" fill="#746d83"/><path d="M238.381,204.261l14.1,1.134,20.106-1.309h-.345l-18.627-1.8c-4.267-1.566-1.309-10.789-1.309-10.789l-14.267.725-1.14.058C231.852,204.086,238.381,204.261,238.381,204.261Z" transform="translate(14.455 39.281)" fill="#d1d9ec"/><path d="M238.381,204.086l14.1,1.134,20.106-1.309h-.345l-20.328.725-13.618-1.479c-3.869-1.017-1.654-7.727-.257-11.1l-1.14.058C231.852,203.911,238.381,204.086,238.381,204.086Z" transform="translate(14.455 39.456)" opacity="0.1"/><path d="M218.791,138.52l4.313,61.865.584,8.118a3.507,3.507,0,0,0,3.542,3.279h1.309l64.934-.392a1.829,1.829,0,0,0,1.8-2l-.584-8.124-4.57-54.4a3.735,3.735,0,0,0-2.5-3.156l-61.889-9.281a5.82,5.82,0,0,0-5.587.643,3.928,3.928,0,0,0-1.356,3.454Z" transform="translate(9.351 21.193)" fill="#4c4c56"/><path d="M222.066,184.5l.584,8.118a3.507,3.507,0,0,0,3.542,3.279H227.5l64.934-.392a1.829,1.829,0,0,0,1.8-2l-.584-8.124Z" transform="translate(10.39 37.079)" fill="#dfe6f5"/><ellipse cx="0.871" cy="1.742" rx="0.871" ry="1.742" transform="translate(275.115 226.569)" fill="#fff"/><path d="M258.672,208.093s-17.756-6.7-22.543-1.829c0,0-.783,1.485,2.437,1.829l13.01,1.046S256.931,209.659,258.672,208.093Z" transform="translate(14.789 43.368)" fill="#d1d9ec"/><path d="M257.853,206.6c-3.507-1.426-13.986-5.114-20.707-1.034,0,0,7.434-.824,11.52,1.537s9.661,1.239,9.661,1.239l.082-.146a1.128,1.128,0,0,0-.555-1.6Z" transform="translate(15.135 43.121)" fill="#dfe6f5"/><path d="M218.791,138.264l4.874,70a3.507,3.507,0,0,0,3.542,3.279h1.309a12.474,12.474,0,0,1-2.268-2.922s-4.787-70.334-5.137-72.076a3.565,3.565,0,0,0-.964-1.718,3.927,3.927,0,0,0-1.356,3.442Z" transform="translate(9.351 21.448)" fill="#dfe6f5"/><path d="M218.791,138.264l4.874,70a3.507,3.507,0,0,0,3.542,3.279h1.309a12.474,12.474,0,0,1-2.268-2.922s-4.787-70.334-5.137-72.076a3.565,3.565,0,0,0-.964-1.718,3.927,3.927,0,0,0-1.356,3.442Z" transform="translate(9.351 21.448)" opacity="0.1"/><path d="M219.153,157.645c5.26-1.169,17.534-4.769,17.534-4.769l2.2-.444c-.029-7.645-.409-15.05-.549-17.534h-.053s-10.479,3.419-12.981,5.26-10.251,1.362-10.251,1.362-12.063.649-22.075,11.829S213.916,158.8,219.153,157.645Z" transform="translate(0.614 21.472)" opacity="0.1"/><path d="M270.352,138.256a3.045,3.045,0,0,1,.684,5.108c-2.776,2.3-6.826,5.044-10.7,5.43-6.429.649-21.976,3.764-23.519,4.091a1.872,1.872,0,0,0-.245.058c-1.28.374-12.478,3.653-17.417,4.734-5.26,1.169-36.237,6.844-26.19-4.313,9.223-10.275,20.181-11.689,21.871-11.824a2.339,2.339,0,0,1,.4,0c1.169.053,7.785.281,10.07-1.373a21.517,21.517,0,0,1,3.764-1.876,72,72,0,0,1,15.4-4.442l10.713-1.87a3.075,3.075,0,0,1,1.8.234Z" transform="translate(0.608 20.539)" fill="#efb7b9"/><path d="M238.112,114.205l5.009-.456s5.471,4.091,9.568,4.091,6.6,5.26,6.6,5.26,6.832,3.191,9.112,3.647,6.149,2.729,5.009,3.641.228,2.963,2.279,4.553,5.26,9.8,2.5,10.935-10.246,3.413-12.274,4.553-4.553,0-4.553,0-12.087-15.728-18.241-12.765-14.576,2.957-14.576,2.957l-6.6-13.887Z" transform="translate(10.352 14.818)" fill="#67647e"/><path d="M471.079,332.98a9.856,9.856,0,0,0-1.327,2.507c-.088.216-.164.468-.245.707a2.73,2.73,0,0,0-.462-.164,6.431,6.431,0,0,0-2.087-.175A6.246,6.246,0,0,1,467,335c.082-3.08-.281-7.37-3.215-5.552-2.823,1.753-.812,4.676,1.005,6.546l.468.462c-1.654,1.169-1.97,3.933-2.25,6.8s-2.712,6.008-4.325,7.791c-.164.187-.316.345-.456.5a5.932,5.932,0,0,0-4.676-1.21l-.216-.789c-1.309-4.728-4.027-12.917-7.493-14.711.146-.181.3-.368.456-.584,1.473-1.923,3.127-4.787.678-5.517s-2.665,2.484-2.531,4.886a5,5,0,0,0,.07.859,3.594,3.594,0,0,0-2.566,1.251l-.374-.45c-1.987-2.338-5.634-6.061-6.733-3.25-1.029,2.618,2.18,6.02,4.436,7.99l.14.123c-1.52,6.143,5.1,11.152,8.656,13.343l.456.281c-4.909,5.786-7.937,16.634-7.937,16.634l13.747,2.455s9.112-7.867,7.949-15.254h.094c9.106-1.823,11.181-11.537,9.76-17.3l.164-.07a10.338,10.338,0,0,0,4.214-3.191C479.039,333.5,473.691,329.5,471.079,332.98Z" transform="translate(77.278 82.429)" fill="#c0cfe8"/><path d="M471.079,332.98a9.856,9.856,0,0,0-1.327,2.507c-.088.216-.164.468-.245.707a2.73,2.73,0,0,0-.462-.164,6.431,6.431,0,0,0-2.087-.175A6.246,6.246,0,0,1,467,335c.082-3.08-.281-7.37-3.215-5.552-2.823,1.753-.812,4.676,1.005,6.546l.468.462c-1.654,1.169-1.97,3.933-2.25,6.8s-2.712,6.008-4.325,7.791c-.164.187-.316.345-.456.5a5.932,5.932,0,0,0-4.676-1.21l-.216-.789c-1.309-4.728-4.027-12.917-7.493-14.711.146-.181.3-.368.456-.584,1.473-1.923,3.127-4.787.678-5.517s-2.665,2.484-2.531,4.886a5,5,0,0,0,.07.859,3.594,3.594,0,0,0-2.566,1.251l-.374-.45c-1.987-2.338-5.634-6.061-6.733-3.25-1.029,2.618,2.18,6.02,4.436,7.99l.14.123c-1.52,6.143,5.1,11.152,8.656,13.343l.456.281c-4.909,5.786-7.937,16.634-7.937,16.634l13.747,2.455s9.112-7.867,7.949-15.254h.094c9.106-1.823,11.181-11.537,9.76-17.3l.164-.07a10.338,10.338,0,0,0,4.214-3.191C479.039,333.5,473.691,329.5,471.079,332.98Z" transform="translate(77.278 82.429)" opacity="0.1"/><path d="M443.515,336.369l-1.607,4.7s-.888-.631-2.016-1.625c-2.256-1.97-5.465-5.371-4.436-7.99,1.1-2.811,4.746.9,6.733,3.25C442.989,335.644,443.515,336.369,443.515,336.369Z" transform="translate(77.471 83.003)" fill="#c0cfe8"/><path d="M444.584,334.249a22.273,22.273,0,0,1-1.578,1.859,22.813,22.813,0,0,1-.286-2.478c-.134-2.4.117-5.605,2.531-4.886S446.045,332.327,444.584,334.249Z" transform="translate(79.81 82.433)" fill="#c0cfe8"/><path d="M461,334.9c-.053,1.549-.2,2.788-.2,2.788a20.27,20.27,0,0,1-2-1.794c-1.818-1.882-3.828-4.8-1.005-6.546C460.734,327.534,461.078,331.824,461,334.9Z" transform="translate(84.117 82.521)" fill="#c0cfe8"/><path d="M468.911,336.3a10.339,10.339,0,0,1-4.214,3.191,11.321,11.321,0,0,1-1.414.514l-1.894-2.659a18.817,18.817,0,0,1,.783-2.583,9.856,9.856,0,0,1,1.327-2.507C466.118,328.781,471.466,332.779,468.911,336.3Z" transform="translate(85.694 83.15)" fill="#c0cfe8"/><path d="M441.08,333.69c.8.935,1.327,1.66,1.327,1.66l-1.607,4.7s-.888-.631-2.016-1.625a9.164,9.164,0,0,1,1.806-4.132C440.752,334.075,440.922,333.877,441.08,333.69Z" transform="translate(78.58 84.022)" opacity="0.1"/><path d="M444.577,333.055A22.287,22.287,0,0,1,443,334.914a22.792,22.792,0,0,1-.286-2.478,3.244,3.244,0,0,1,1.865.619Z" transform="translate(79.817 83.628)" opacity="0.1"/><path d="M453.727,351.536l-4,1.753a24.19,24.19,0,0,1-2.127-1.2c-4.2-2.583-12.654-9.088-7.014-16.757s10.386,6.084,12.274,12.811C453.435,350.156,453.727,351.536,453.727,351.536Z" transform="translate(78.557 83.827)" fill="#c0cfe8"/><path d="M458.211,334.465a3.313,3.313,0,0,1,2.209-.993c-.052,1.549-.2,2.788-.2,2.788a20.28,20.28,0,0,1-2-1.794Z" transform="translate(84.693 83.953)" opacity="0.1"/><path d="M464.7,338.565a11.337,11.337,0,0,1-1.414.514l-1.894-2.659a18.814,18.814,0,0,1,.783-2.583C463.394,334.561,464.294,336.338,464.7,338.565Z" transform="translate(85.694 84.068)" opacity="0.1"/><path d="M458.281,355.864c-.222.047-.444.088-.672.123-13.4,2.034-4.419-5.2-4.419-5.2s.584-.555,1.42-1.467c1.613-1.753,4.05-4.9,4.325-7.791.421-4.343.912-8.416,6.037-7.224C470,335.49,470.963,353.327,458.281,355.864Z" transform="translate(82.186 84.151)" fill="#c0cfe8"/><rect width="25.605" height="6.733" transform="translate(514.61 473.382)" fill="#d4dfec"/><rect width="33.455" height="23.495" transform="translate(510.543 451.499)" fill="#d4dfec"/><rect width="25.605" height="6.733" transform="translate(514.61 473.382)" opacity="0.1"/><rect width="33.455" height="23.495" transform="translate(510.543 451.499)" opacity="0.1"/><rect width="25.605" height="6.733" transform="translate(516.294 473.382)" fill="#d4dfec"/><path d="M450.725,344.546c.584,2.011.865,3.39.865,3.39l-4,1.753a24.182,24.182,0,0,1-2.128-1.2C447.043,346.492,448.808,345,450.725,344.546Z" transform="translate(80.683 87.438)" opacity="0.1"/><path d="M458.281,352.22c-.222.047-.444.088-.672.123-13.4,2.034-4.419-5.2-4.419-5.2s.584-.555,1.42-1.467A8.894,8.894,0,0,1,458.281,352.22Z" transform="translate(82.186 87.795)" opacity="0.1"/><path d="M439.783,365.233s7.5-26.885,18.025-18.586-4.278,21.041-4.278,21.041Z" transform="translate(78.895 87.599)" fill="#c0cfe8"/><circle cx="0.842" cy="0.842" r="0.842" transform="translate(521.624 422.528)" opacity="0.1"/><circle cx="0.842" cy="0.842" r="0.842" transform="translate(521.554 426.455)" opacity="0.1"/><circle cx="0.842" cy="0.842" r="0.842" transform="translate(545.961 423.299)" opacity="0.1"/><circle cx="0.842" cy="0.842" r="0.842" transform="translate(526.323 443.434)" opacity="0.1"/><circle cx="0.842" cy="0.842" r="0.842" transform="translate(544.207 429.822)" opacity="0.1"/><circle cx="0.842" cy="0.842" r="0.842" transform="translate(535.511 438.524)" opacity="0.1"/><circle cx="0.842" cy="0.842" r="0.842" transform="translate(524.499 424.211)" opacity="0.1"/><circle cx="0.842" cy="0.842" r="0.842" transform="translate(543.646 425.824)" opacity="0.1"/><circle cx="0.842" cy="0.842" r="0.842" transform="translate(540.771 432.347)" opacity="0.1"/><circle cx="0.842" cy="0.842" r="0.842" transform="translate(531.934 442.803)" opacity="0.1"/><circle cx="0.842" cy="0.842" r="0.842" transform="translate(530.11 438.665)" opacity="0.1"/><circle cx="0.842" cy="0.842" r="0.842" transform="translate(525.762 429.331)" opacity="0.1"/><rect width="25.605" height="2.461" transform="translate(516.294 473.382)" opacity="0.1"/><rect width="33.455" height="23.495" transform="translate(512.226 451.499)" fill="#d4dfec"/><circle cx="0.842" cy="0.842" r="0.842" transform="translate(533.056 446.59)" opacity="0.1"/><circle cx="0.842" cy="0.842" r="0.842" transform="translate(528.006 447.642)" opacity="0.1"/></svg>