<svg xmlns="http://www.w3.org/2000/svg" width="29.045" height="29.045" viewBox="0 0 29.045 29.045"><path d="M0,0H29.045V29.045H0Z" fill="none"/><path d="M7.381,12.427A18.333,18.333,0,0,0,15.356,20.4l2.662-2.662a1.2,1.2,0,0,1,1.234-.29,13.8,13.8,0,0,0,4.32.69,1.214,1.214,0,0,1,1.21,1.21v4.224a1.214,1.214,0,0,1-1.21,1.21A20.572,20.572,0,0,1,3,4.21,1.214,1.214,0,0,1,4.21,3H8.446a1.214,1.214,0,0,1,1.21,1.21,13.748,13.748,0,0,0,.69,4.32,1.215,1.215,0,0,1-.3,1.234Z" transform="translate(0.631 0.631)" fill="#adb6c4"/></svg>